<?xml version="1.0" standalone="no"?>
<!DOCTYPE svg PUBLIC "-//W3C//DTD SVG 20010904//EN"
 "http://www.w3.org/TR/2001/REC-SVG-20010904/DTD/svg10.dtd">
<svg version="1.0" xmlns="http://www.w3.org/2000/svg"
 width="700.000000pt" height="700.000000pt" viewBox="0 0 700.000000 700.000000"
 preserveAspectRatio="xMidYMid meet">
<metadata>
Created by potrace 1.14, written by Peter Selinger 2001-2017
</metadata>
<g transform="translate(0.000000,700.000000) scale(0.100000,-0.100000)"
fill="#000000" stroke="none">
<path d="M4115 6341 c-60 -17 -103 -41 -154 -87 -64 -57 -83 -97 -131 -269
-15 -55 -67 -235 -115 -400 -48 -165 -94 -325 -102 -355 -8 -30 -44 -156 -80
-280 -36 -124 -70 -241 -74 -260 -5 -19 -11 -42 -14 -50 -2 -8 -13 -46 -25
-84 -12 -38 -23 -76 -25 -85 -2 -9 -51 -180 -109 -381 -96 -336 -199 -692
-667 -2325 -120 -419 -169 -604 -169 -640 0 -152 102 -289 245 -330 134 -39
273 0 364 102 51 57 61 79 110 248 11 39 32 111 47 160 15 50 30 104 34 120
12 47 36 132 65 230 14 50 78 270 141 490 131 459 142 497 157 545 6 19 12 40
13 45 1 6 30 107 64 225 34 118 66 229 70 245 5 17 18 62 29 100 12 39 23 77
25 85 8 31 66 234 151 525 47 165 88 308 90 318 2 10 9 32 15 50 5 18 53 181
104 362 52 182 157 544 232 805 126 432 138 482 138 555 1 71 -3 89 -31 146
-63 127 -158 190 -293 195 -41 2 -88 -1 -105 -5z"/>
<path d="M1470 5127 c-63 -21 -123 -65 -207 -149 -45 -46 -332 -333 -638 -638
-638 -637 -620 -615 -619 -770 0 -74 4 -93 32 -151 29 -60 85 -119 663 -695
723 -720 644 -644 689 -671 82 -49 206 -59 302 -23 212 79 296 317 178 508
-16 26 -252 268 -524 539 -273 271 -496 494 -496 496 0 3 233 238 518 523 469
469 520 524 535 569 61 180 -16 366 -183 444 -63 29 -190 38 -250 18z"/>
<path d="M5330 5131 c-141 -46 -243 -171 -253 -311 -5 -59 17 -151 48 -203 13
-23 249 -266 525 -540 275 -275 500 -501 500 -504 0 -2 -221 -223 -491 -491
-269 -268 -503 -507 -519 -532 -99 -155 -82 -319 46 -445 117 -114 307 -128
439 -33 44 32 1294 1274 1324 1316 34 48 53 136 47 212 -10 134 6 115 -690
810 -347 346 -649 642 -671 657 -73 51 -115 66 -200 69 -44 2 -91 0 -105 -5z"/>
</g>
</svg>
