<svg width="797" height="638" viewBox="0 0 797 638" fill="none" xmlns="http://www.w3.org/2000/svg">
<path d="M518.05 39.8002C518.05 27.1025 508.212 0 478.325 0C460.915 0 444.863 11.3046 439.857 28.8845L280.457 587.134C279.41 590.792 278.911 594.476 278.911 598.101C277.829 610.96 288.912 638 318.8 638C336.135 638 352.087 626.59 357.093 609.066L516.493 50.8157C517.552 47.1148 518.05 43.4264 518.05 39.8002ZM219.175 178.316C219.175 155.537 200.558 138.441 179.325 138.441C169.128 138.441 158.927 142.335 151.156 150.124L11.681 289.687C3.8916 298.564 0 308.782 0 317.879C0 326.975 3.8916 339.436 11.6748 347.162L151.15 486.724C158.902 494.575 169.113 497.316 179.325 497.316C200.558 497.316 219.175 480.207 219.175 457.441C219.175 447.238 215.283 437.03 207.5 429.242L96.2004 317.879L207.506 206.503C215.315 199.749 219.175 189.655 219.175 178.316ZM797 317.879C797 307.676 793.108 297.468 785.325 289.679L645.85 150.117C638.098 143.425 627.887 138.441 617.675 138.441C596.442 138.441 577.825 155.55 577.825 178.316C577.825 188.519 581.717 198.727 589.5 206.515L700.806 317.891L589.5 429.267C581.685 438.127 577.825 448.345 577.825 457.441C577.825 480.22 596.442 497.316 617.675 497.316C627.872 497.316 638.073 493.422 645.844 485.633L785.319 346.07C793.139 339.436 797 329.218 797 317.879Z" fill="#3C3E41" fill-opacity="0.05"/>
</svg>
