<svg width="24" height="24" viewBox="0 0 24 24" fill="none" xmlns="http://www.w3.org/2000/svg">
<path d="M12.2932 24C10.3437 24 8.608 23.7353 7.08625 23.2058C5.56449 22.6824 4.27803 21.9125 3.22685 20.8962C2.17568 19.8859 1.37508 18.6504 0.825048 17.1898C0.275016 15.7292 0 14.0677 0 12.2054C0 10.3674 0.275016 8.69989 0.825048 7.20274C1.38119 5.70559 2.19096 4.42145 3.25436 3.35032C4.31775 2.27311 5.61644 1.44542 7.15042 0.86725C8.69051 0.289083 10.4445 0 12.4124 0C14.2336 0 15.8593 0.26474 17.2893 0.794219C18.7255 1.3237 19.9417 2.07836 20.9379 3.0582C21.9402 4.03195 22.701 5.19133 23.2205 6.53633C23.7461 7.87524 24.0058 9.35717 23.9997 10.9821C24.0058 12.1019 23.9081 13.1305 23.7064 14.0677C23.5047 15.0049 23.1869 15.8235 22.753 16.5234C22.3252 17.2172 21.7629 17.768 21.0662 18.1757C20.3695 18.5774 19.5261 18.8056 18.5361 18.8604C17.8272 18.9152 17.2527 18.8634 16.8126 18.7052C16.3726 18.547 16.0365 18.3127 15.8043 18.0023C15.5781 17.6858 15.4315 17.3176 15.3642 16.8977H15.2542C15.1075 17.2628 14.8203 17.5945 14.3925 17.8927C13.9647 18.1849 13.4422 18.4131 12.8249 18.5774C12.2138 18.7356 11.5629 18.7935 10.8723 18.7509C10.1511 18.7083 9.46666 18.5409 8.81885 18.2488C8.17714 17.9566 7.60572 17.5337 7.10458 16.9798C6.60955 16.426 6.21842 15.7413 5.93118 14.9258C5.65005 14.1103 5.50643 13.167 5.50032 12.0959C5.50643 11.0369 5.65616 10.1149 5.94951 9.32978C6.24898 8.54469 6.64316 7.88437 7.13208 7.3488C7.62711 6.81324 8.17714 6.39331 8.78218 6.08901C9.38721 5.78471 9.9953 5.58996 10.6065 5.50476C11.297 5.40129 11.951 5.40129 12.5682 5.50476C13.1855 5.60822 13.705 5.77558 14.1267 6.00685C14.5545 6.23811 14.8203 6.48764 14.9242 6.75542H15.0525V5.73298H17.9219V14.6428C17.928 15.0628 18.0227 15.3884 18.2061 15.6196C18.3894 15.8509 18.6369 15.9665 18.9486 15.9665C19.3703 15.9665 19.7217 15.7809 20.0028 15.4097C20.2901 15.0384 20.504 14.4694 20.6445 13.7025C20.7912 12.9357 20.8645 11.9589 20.8645 10.7722C20.8645 9.628 20.7118 8.62381 20.4062 7.7596C20.1067 6.88931 19.685 6.14987 19.1411 5.54127C18.6033 4.92659 17.9769 4.42754 17.2618 4.04412C16.5468 3.66071 15.7706 3.38075 14.9334 3.20426C14.1022 3.02777 13.2466 2.93952 12.3666 2.93952C10.8448 2.93952 9.51555 3.17079 8.37882 3.63332C7.24209 4.08977 6.29481 4.73184 5.53699 5.55953C4.77917 6.38722 4.2108 7.35793 3.83189 8.47166C3.45909 9.57931 3.26963 10.7874 3.26352 12.0959C3.26963 13.5382 3.47131 14.8163 3.86856 15.93C4.27192 17.0377 4.86473 17.9688 5.647 18.7235C6.42926 19.4781 7.39487 20.0502 8.54383 20.4397C9.69279 20.8292 11.0129 21.024 12.5041 21.024C13.2069 21.024 13.8944 20.9722 14.5667 20.8688C15.2389 20.7714 15.847 20.6497 16.391 20.5036C16.9349 20.3636 17.3718 20.2267 17.7019 20.0928L18.6094 22.7402C18.2244 22.9593 17.7019 23.1632 17.0418 23.3518C16.3879 23.5466 15.6484 23.7018 14.8234 23.8174C14.0044 23.9391 13.161 24 12.2932 24ZM11.8715 15.7474C12.6171 15.7474 13.2099 15.6044 13.65 15.3184C14.0961 15.0323 14.4139 14.6094 14.6034 14.0494C14.7989 13.4835 14.8906 12.7866 14.8784 11.9589C14.8723 11.2286 14.7775 10.6109 14.5942 10.1057C14.417 9.59452 14.1083 9.20806 13.6683 8.94637C13.2344 8.67859 12.6293 8.54469 11.8532 8.54469C11.1748 8.54469 10.5973 8.68771 10.1206 8.97375C9.65001 9.25979 9.28943 9.66147 9.03886 10.1788C8.7944 10.69 8.66912 11.2925 8.663 11.9863C8.66912 12.6314 8.77301 13.2431 8.97469 13.8212C9.17637 14.3933 9.50944 14.8589 9.97391 15.218C10.4384 15.5709 11.0709 15.7474 11.8715 15.7474Z" fill="#3C3E41"/>
</svg>
