<svg width="24" height="24" viewBox="0 0 24 24" fill="none" xmlns="http://www.w3.org/2000/svg">
<path fill-rule="evenodd" clip-rule="evenodd" d="M11.996 0C9.14719 0.00152411 6.39176 1.04194 4.22245 2.9352C2.05314 4.82847 0.611401 7.45113 0.155032 10.3342C-0.301338 13.2173 0.257416 16.1728 1.73139 18.6723C3.20537 21.1718 5.49845 23.0522 8.20061 23.9774C8.79674 24.0915 9.02129 23.7105 9.02129 23.3866C9.02129 23.0626 9.00937 22.1234 9.00539 21.0966C5.66701 21.8402 4.96159 19.644 4.96159 19.644C4.41711 18.2179 3.63021 17.843 3.63021 17.843C2.54126 17.081 3.71168 17.0953 3.71168 17.0953C4.91787 17.1829 5.55177 18.3645 5.55177 18.3645C6.62085 20.245 8.35957 19.701 9.04315 19.3832C9.15045 18.5866 9.46244 18.0447 9.80621 17.737C7.13948 17.4274 4.33762 16.372 4.33762 11.6576C4.3211 10.435 4.76362 9.2526 5.57363 8.35512C5.45042 8.04544 5.03908 6.79452 5.69086 5.09538C5.69086 5.09538 6.69834 4.76533 8.99149 6.35649C10.9584 5.80501 13.0337 5.80501 15.0006 6.35649C17.2917 4.76533 18.2972 5.09538 18.2972 5.09538C18.951 6.79044 18.5397 8.04137 18.4164 8.35512C19.229 9.25275 19.6725 10.4372 19.6544 11.6617C19.6544 16.3863 16.8466 17.4274 14.1759 17.7309C14.6051 18.114 14.9886 18.8617 14.9886 20.0107C14.9886 21.6569 14.9747 22.9811 14.9747 23.3866C14.9747 23.7146 15.1913 24.0976 15.7994 23.9774C18.5019 23.0521 20.7952 21.1714 22.2691 18.6715C23.7431 16.1716 24.3015 13.2156 23.8446 10.3322C23.3878 7.44886 21.9453 4.82617 19.7753 2.93323C17.6052 1.04029 14.8492 0.000558055 12 0H11.996Z" fill="#3C3E41"/>
</svg>
