<svg width="24" height="20" viewBox="0 0 24 20" fill="none" xmlns="http://www.w3.org/2000/svg">
<path fill-rule="evenodd" clip-rule="evenodd" d="M1.58817 8.24205C7.78965 5.54017 11.925 3.75892 13.9941 2.89831C19.9018 0.44109 21.1293 0.014245 21.9295 0.000150281C22.1054 -0.00294969 22.4989 0.0406627 22.7538 0.247476C22.969 0.422105 23.0282 0.658004 23.0565 0.823572C23.0849 0.989139 23.1202 1.36631 23.0921 1.66101C22.772 5.02476 21.3867 13.1877 20.682 16.9551C20.3838 18.5493 19.7966 19.0838 19.2282 19.1361C17.9928 19.2498 17.0548 18.3197 15.8582 17.5354C13.986 16.3081 12.9282 15.5441 11.1108 14.3464C9.01054 12.9624 10.3721 12.2017 11.569 10.9584C11.8823 10.6331 17.3253 5.68226 17.4306 5.23314C17.4438 5.17697 17.4561 4.9676 17.3317 4.85704C17.2073 4.74648 17.0237 4.78429 16.8912 4.81436C16.7034 4.85698 13.7124 6.83392 7.91818 10.7452C7.0692 11.3282 6.30021 11.6122 5.61122 11.5973C4.85167 11.5809 3.39059 11.1679 2.30444 10.8148C0.972217 10.3818 -0.0866027 10.1528 0.00559677 9.41735C0.0536199 9.03427 0.581144 8.64251 1.58817 8.24205Z" fill="#3C3E41"/>
</svg>
