<svg width="24" height="24" viewBox="0 0 24 24" fill="none" xmlns="http://www.w3.org/2000/svg">
<path d="M15.6816 24C17.2742 23.4592 18.7416 22.5748 19.9897 21.4035C21.2379 20.2322 22.2393 18.7999 22.9296 17.1983H19.1184C18.4512 20.1277 17.232 22.5227 15.6816 24Z" fill="#3C3E41"/>
<path d="M12.96 17.1983V23.4252C14.7552 22.7849 16.3008 20.4 17.1216 17.1983H12.96Z" fill="#3C3E41"/>
<path d="M11.0401 23.4252V17.1983H6.87378C7.69454 20.4 9.24015 22.7849 11.0401 23.4252Z" fill="#3C3E41"/>
<path d="M4.88151 17.1983H1.07031C1.76026 18.8011 2.76206 20.2343 4.01121 21.4057C5.26036 22.5772 6.7292 23.4609 8.32315 24C6.76315 22.5277 5.54391 20.1328 4.88151 17.1983Z" fill="#3C3E41"/>
<path d="M23.6066 8.79831H19.469C19.6089 9.85922 19.6794 10.929 19.6802 12C19.681 13.0642 19.612 14.1272 19.4738 15.1815H23.6114C24.1314 13.0886 24.1297 10.8903 23.6066 8.79831Z" fill="#3C3E41"/>
<path d="M17.76 12C17.7586 10.9281 17.68 9.85777 17.5248 8.79831H12.96V15.1815H17.5248C17.68 14.1288 17.7586 13.0652 17.76 12Z" fill="#3C3E41"/>
<path d="M6.23999 12C6.2398 13.0651 6.31682 14.1287 6.47039 15.1815H11.04V8.79831H6.47039C6.31683 9.85791 6.23981 10.9282 6.23999 12Z" fill="#3C3E41"/>
<path d="M4.32003 12C4.31924 10.9291 4.3882 9.85934 4.52643 8.79831H0.393629C-0.129578 10.8903 -0.131231 13.0886 0.388829 15.1815H4.52163C4.38742 14.1269 4.32007 13.064 4.32003 12Z" fill="#3C3E41"/>
<path d="M22.92 6.78151C22.2296 5.184 21.2291 3.75559 19.9826 2.5878C18.7362 1.42001 17.2712 0.538587 15.6816 0C17.232 1.47227 18.4464 3.86218 19.1136 6.78151H22.92Z" fill="#3C3E41"/>
<path d="M12.96 0.574799V6.78152H17.1168C16.296 3.58992 14.7552 1.21009 12.96 0.574799Z" fill="#3C3E41"/>
<path d="M6.87842 6.78152H11.04V0.574799C9.23998 1.21009 7.69918 3.58992 6.87842 6.78152Z" fill="#3C3E41"/>
<path d="M8.31371 0C6.72514 0.539463 5.26125 1.42126 4.01567 2.58899C2.77009 3.75672 1.77024 5.18467 1.08008 6.78151H4.88168C5.54888 3.86218 6.76332 1.47227 8.31371 0Z" fill="#3C3E41"/>
</svg>
