<svg width="242" height="43" viewBox="0 0 242 43" fill="none" xmlns="http://www.w3.org/2000/svg">
<path d="M73.032 30.288C71.736 30.288 70.528 30.08 69.408 29.664C68.304 29.232 67.344 28.624 66.528 27.84C65.712 27.056 65.072 26.136 64.608 25.08C64.16 24.024 63.936 22.864 63.936 21.6C63.936 20.336 64.16 19.176 64.608 18.12C65.072 17.064 65.712 16.144 66.528 15.36C67.36 14.576 68.328 13.976 69.432 13.56C70.536 13.128 71.744 12.912 73.056 12.912C74.512 12.912 75.824 13.168 76.992 13.68C78.176 14.176 79.168 14.912 79.968 15.888L77.472 18.192C76.896 17.536 76.256 17.048 75.552 16.728C74.848 16.392 74.08 16.224 73.248 16.224C72.464 16.224 71.744 16.352 71.088 16.608C70.432 16.864 69.864 17.232 69.384 17.712C68.904 18.192 68.528 18.76 68.256 19.416C68 20.072 67.872 20.8 67.872 21.6C67.872 22.4 68 23.128 68.256 23.784C68.528 24.44 68.904 25.008 69.384 25.488C69.864 25.968 70.432 26.336 71.088 26.592C71.744 26.848 72.464 26.976 73.248 26.976C74.08 26.976 74.848 26.816 75.552 26.496C76.256 26.16 76.896 25.656 77.472 24.984L79.968 27.288C79.168 28.264 78.176 29.008 76.992 29.52C75.824 30.032 74.504 30.288 73.032 30.288ZM90.402 30.288C89.074 30.288 87.842 30.072 86.706 29.64C85.586 29.208 84.61 28.6 83.778 27.816C82.962 27.032 82.322 26.112 81.858 25.056C81.41 24 81.186 22.848 81.186 21.6C81.186 20.352 81.41 19.2 81.858 18.144C82.322 17.088 82.97 16.168 83.802 15.384C84.634 14.6 85.61 13.992 86.73 13.56C87.85 13.128 89.066 12.912 90.378 12.912C91.706 12.912 92.922 13.128 94.026 13.56C95.146 13.992 96.114 14.6 96.93 15.384C97.762 16.168 98.41 17.088 98.874 18.144C99.338 19.184 99.57 20.336 99.57 21.6C99.57 22.848 99.338 24.008 98.874 25.08C98.41 26.136 97.762 27.056 96.93 27.84C96.114 28.608 95.146 29.208 94.026 29.64C92.922 30.072 91.714 30.288 90.402 30.288ZM90.378 26.976C91.13 26.976 91.818 26.848 92.442 26.592C93.082 26.336 93.642 25.968 94.122 25.488C94.602 25.008 94.97 24.44 95.226 23.784C95.498 23.128 95.634 22.4 95.634 21.6C95.634 20.8 95.498 20.072 95.226 19.416C94.97 18.76 94.602 18.192 94.122 17.712C93.658 17.232 93.106 16.864 92.466 16.608C91.826 16.352 91.13 16.224 90.378 16.224C89.626 16.224 88.93 16.352 88.29 16.608C87.666 16.864 87.114 17.232 86.634 17.712C86.154 18.192 85.778 18.76 85.506 19.416C85.25 20.072 85.122 20.8 85.122 21.6C85.122 22.384 85.25 23.112 85.506 23.784C85.778 24.44 86.146 25.008 86.61 25.488C87.09 25.968 87.65 26.336 88.29 26.592C88.93 26.848 89.626 26.976 90.378 26.976ZM102.492 30V13.2H110.124C111.948 13.2 113.556 13.552 114.948 14.256C116.34 14.944 117.428 15.912 118.212 17.16C118.996 18.408 119.388 19.888 119.388 21.6C119.388 23.296 118.996 24.776 118.212 26.04C117.428 27.288 116.34 28.264 114.948 28.968C113.556 29.656 111.948 30 110.124 30H102.492ZM106.38 26.808H109.932C111.052 26.808 112.02 26.6 112.836 26.184C113.668 25.752 114.308 25.144 114.756 24.36C115.22 23.576 115.452 22.656 115.452 21.6C115.452 20.528 115.22 19.608 114.756 18.84C114.308 18.056 113.668 17.456 112.836 17.04C112.02 16.608 111.052 16.392 109.932 16.392H106.38V26.808ZM122.32 30V13.2H126.208V30H122.32ZM130.195 30V13.2H133.411L143.323 25.296H141.763V13.2H145.603V30H142.411L132.475 17.904H134.035V30H130.195ZM157.69 30.288C156.362 30.288 155.138 30.08 154.018 29.664C152.914 29.232 151.946 28.624 151.114 27.84C150.298 27.056 149.658 26.136 149.194 25.08C148.746 24.024 148.522 22.864 148.522 21.6C148.522 20.336 148.746 19.176 149.194 18.12C149.658 17.064 150.306 16.144 151.138 15.36C151.97 14.576 152.946 13.976 154.066 13.56C155.186 13.128 156.418 12.912 157.762 12.912C159.25 12.912 160.586 13.16 161.77 13.656C162.97 14.152 163.978 14.872 164.794 15.816L162.298 18.12C161.69 17.48 161.026 17.008 160.306 16.704C159.586 16.384 158.802 16.224 157.954 16.224C157.138 16.224 156.394 16.352 155.722 16.608C155.05 16.864 154.466 17.232 153.97 17.712C153.49 18.192 153.114 18.76 152.842 19.416C152.586 20.072 152.458 20.8 152.458 21.6C152.458 22.384 152.586 23.104 152.842 23.76C153.114 24.416 153.49 24.992 153.97 25.488C154.466 25.968 155.042 26.336 155.698 26.592C156.37 26.848 157.106 26.976 157.906 26.976C158.674 26.976 159.418 26.856 160.138 26.616C160.874 26.36 161.586 25.936 162.274 25.344L164.482 28.152C163.57 28.84 162.506 29.368 161.29 29.736C160.09 30.104 158.89 30.288 157.69 30.288ZM160.93 27.648V21.336H164.482V28.152L160.93 27.648ZM169.48 30.192C168.84 30.192 168.288 29.976 167.824 29.544C167.376 29.096 167.152 28.528 167.152 27.84C167.152 27.152 167.376 26.6 167.824 26.184C168.288 25.752 168.84 25.536 169.48 25.536C170.136 25.536 170.688 25.752 171.136 26.184C171.584 26.6 171.808 27.152 171.808 27.84C171.808 28.528 171.584 29.096 171.136 29.544C170.688 29.976 170.136 30.192 169.48 30.192ZM182.18 30.288C180.884 30.288 179.676 30.08 178.556 29.664C177.452 29.232 176.492 28.624 175.676 27.84C174.86 27.056 174.22 26.136 173.756 25.08C173.308 24.024 173.084 22.864 173.084 21.6C173.084 20.336 173.308 19.176 173.756 18.12C174.22 17.064 174.86 16.144 175.676 15.36C176.508 14.576 177.476 13.976 178.58 13.56C179.684 13.128 180.892 12.912 182.204 12.912C183.66 12.912 184.972 13.168 186.14 13.68C187.324 14.176 188.316 14.912 189.116 15.888L186.62 18.192C186.044 17.536 185.404 17.048 184.7 16.728C183.996 16.392 183.228 16.224 182.396 16.224C181.612 16.224 180.892 16.352 180.236 16.608C179.58 16.864 179.012 17.232 178.532 17.712C178.052 18.192 177.676 18.76 177.404 19.416C177.148 20.072 177.02 20.8 177.02 21.6C177.02 22.4 177.148 23.128 177.404 23.784C177.676 24.44 178.052 25.008 178.532 25.488C179.012 25.968 179.58 26.336 180.236 26.592C180.892 26.848 181.612 26.976 182.396 26.976C183.228 26.976 183.996 26.816 184.7 26.496C185.404 26.16 186.044 25.656 186.62 24.984L189.116 27.288C188.316 28.264 187.324 29.008 186.14 29.52C184.972 30.032 183.652 30.288 182.18 30.288ZM191.742 30V13.2H195.63V26.832H204.054V30H191.742ZM213.503 30.288C211.119 30.288 209.255 29.624 207.911 28.296C206.567 26.968 205.895 25.072 205.895 22.608V13.2H209.783V22.464C209.783 24.064 210.111 25.216 210.767 25.92C211.423 26.624 212.343 26.976 213.527 26.976C214.711 26.976 215.631 26.624 216.287 25.92C216.943 25.216 217.271 24.064 217.271 22.464V13.2H221.111V22.608C221.111 25.072 220.439 26.968 219.095 28.296C217.751 29.624 215.887 30.288 213.503 30.288ZM224.953 30V13.2H233.161C235.273 13.2 236.857 13.6 237.913 14.4C238.985 15.2 239.521 16.256 239.521 17.568C239.521 18.448 239.305 19.216 238.873 19.872C238.441 20.512 237.849 21.008 237.097 21.36C236.345 21.712 235.481 21.888 234.505 21.888L234.961 20.904C236.017 20.904 236.953 21.08 237.769 21.432C238.585 21.768 239.217 22.272 239.665 22.944C240.129 23.616 240.361 24.44 240.361 25.416C240.361 26.856 239.793 27.984 238.657 28.8C237.521 29.6 235.849 30 233.641 30H224.953ZM228.817 27.072H233.353C234.361 27.072 235.121 26.912 235.633 26.592C236.161 26.256 236.425 25.728 236.425 25.008C236.425 24.304 236.161 23.784 235.633 23.448C235.121 23.096 234.361 22.92 233.353 22.92H228.529V20.088H232.681C233.625 20.088 234.345 19.928 234.841 19.608C235.353 19.272 235.609 18.768 235.609 18.096C235.609 17.44 235.353 16.952 234.841 16.632C234.345 16.296 233.625 16.128 232.681 16.128H228.817V27.072Z" fill="#3C3E41"/>
<g clip-path="url(#clip0_57_123)">
<path d="M35.1 2.68246C35.1 1.82666 34.4334 0 32.4084 0C31.2289 0 30.1413 0.761906 29.8021 1.94676L19.0021 39.5718C18.9312 39.8183 18.8974 40.0666 18.8974 40.3109C18.8241 41.1775 19.575 43 21.6 43C22.7745 43 23.8553 42.231 24.1945 41.0499L34.9945 3.42488C35.0662 3.17545 35.1 2.92686 35.1 2.68246ZM14.85 12.0182C14.85 10.4829 13.5886 9.33066 12.15 9.33066C11.4591 9.33066 10.7679 9.59311 10.2414 10.1181L0.791438 19.5244C0.263672 20.1227 0 20.8113 0 21.4244C0 22.0375 0.263672 22.8773 0.791016 23.398L10.241 32.8043C10.7663 33.3334 11.4581 33.5182 12.15 33.5182C13.5886 33.5182 14.85 32.3651 14.85 30.8307C14.85 30.143 14.5863 29.455 14.059 28.9301L6.51797 21.4244L14.0594 13.9179C14.5884 13.4627 14.85 12.7824 14.85 12.0182ZM54 21.4244C54 20.7367 53.7363 20.0487 53.209 19.5238L43.759 10.1176C43.2337 9.6666 42.5419 9.33066 41.85 9.33066C40.4114 9.33066 39.15 10.4838 39.15 12.0182C39.15 12.7058 39.4137 13.3938 39.941 13.9187L47.4825 21.4253L39.941 28.9318C39.4116 29.5289 39.15 30.2176 39.15 30.8307C39.15 32.3659 40.4114 33.5182 41.85 33.5182C42.5409 33.5182 43.2321 33.2557 43.7586 32.7307L53.2086 23.3245C53.7384 22.8773 54 22.1887 54 21.4244Z" fill="#8544EF"/>
</g>
<defs>
<clipPath id="clip0_57_123">
<rect width="54" height="43" fill="white"/>
</clipPath>
</defs>
</svg>
